<?xml version="1.0" standalone="no"?>
<!DOCTYPE svg PUBLIC "-//W3C//DTD SVG 20010904//EN"
 "http://www.w3.org/TR/2001/REC-SVG-20010904/DTD/svg10.dtd">
<svg version="1.0" xmlns="http://www.w3.org/2000/svg"
 width="512.000000pt" height="512.000000pt" viewBox="0 0 512.000000 512.000000"
 preserveAspectRatio="xMidYMid meet">
<metadata>
Created by potrace 1.11, written by Peter Selinger 2001-2013
</metadata>
<g transform="translate(0.000000,512.000000) scale(0.100000,-0.100000)"
fill="#000000" stroke="none">
<path d="M2470 4934 c-290 -216 -624 -733 -781 -1207 -37 -114 -72 -240 -83
-302 -3 -16 -10 -55 -16 -85 -6 -30 -13 -77 -16 -105 -3 -27 -8 -57 -11 -65
-3 -8 -7 -105 -8 -215 l-3 -200 -79 -65 c-44 -36 -99 -81 -124 -100 -136 -107
-212 -201 -258 -318 -30 -76 -36 -114 -35 -222 0 -90 11 -154 55 -335 11 -44
22 -93 25 -110 3 -16 16 -75 29 -130 13 -55 26 -113 29 -130 32 -175 64 -238
139 -274 90 -43 169 -22 277 75 37 33 97 86 135 119 38 33 78 69 91 80 34 31
74 66 134 117 l55 47 65 -50 c214 -167 495 -208 736 -108 77 32 177 92 222
134 15 14 30 24 34 23 6 -3 280 -233 312 -263 50 -46 206 -174 225 -185 34
-18 110 -20 156 -3 46 16 99 64 114 102 8 22 39 161 56 251 3 14 9 48 15 75
17 83 20 99 25 130 3 17 21 107 40 200 52 258 43 369 -45 533 -40 75 -100 140
-225 242 -128 105 -134 110 -172 142 l-32 26 -5 199 c-2 109 -6 209 -9 223 -3
14 -8 48 -12 75 -43 361 -225 833 -456 1176 -161 241 -299 401 -431 499 -45
33 -84 60 -87 60 -3 0 -40 -25 -81 -56z m207 -1102 c215 -67 343 -293 286
-508 -20 -79 -43 -120 -98 -182 -81 -90 -173 -132 -300 -136 -426 -15 -604
530 -252 773 100 68 246 90 364 53z"/>
<path d="M2470 3614 c-79 -34 -130 -110 -130 -193 1 -141 133 -237 270 -195
60 19 96 51 124 108 81 167 -95 353 -264 280z"/>
<path d="M2031 1076 c-47 -26 -50 -44 -51 -308 0 -164 4 -255 11 -272 12 -26
63 -56 96 -56 25 0 62 26 122 88 29 30 54 52 57 50 2 -3 50 -96 108 -209 70
-139 111 -208 127 -217 27 -14 92 -10 113 7 8 6 60 103 116 214 56 111 104
203 105 205 1 2 33 -26 71 -62 72 -70 114 -88 155 -65 33 17 45 31 54 59 13
40 9 504 -4 529 -13 24 -61 51 -90 51 -10 0 -48 -13 -83 -28 -243 -109 -533
-110 -773 -2 -73 33 -98 36 -134 16z"/>
</g>
</svg>
